<?xml version="1.0" encoding="UTF-8"?>
<!DOCTYPE svg PUBLIC "-//W3C//DTD SVG 1.1//EN" "http://www.w3.org/Graphics/SVG/1.1/DTD/svg11.dtd">
<!-- Creator: CorelDRAW X6 -->
<svg xmlns="http://www.w3.org/2000/svg" xml:space="preserve" width="100%" height="100%" version="1.1" style="shape-rendering:geometricPrecision; text-rendering:geometricPrecision; image-rendering:optimizeQuality; fill-rule:evenodd; clip-rule:evenodd"
viewBox="0 0 500 500"
 xmlns:xlink="http://www.w3.org/1999/xlink">
 <defs>
  <style type="text/css">
   <![CDATA[
    .fil1 {fill:#202020}
   ]]>
  </style>
 </defs>
 <g id="Layer_x0020_1">
  <metadata id="CorelCorpID_0Corel-Layer"/>
  <path class="fil1" d="M102 20l296 0c14,0 26,12 26,26l0 408c0,15 -12,26 -26,26l-296 0c-14,0 -26,-11 -26,-26l0 -408c0,-14 12,-26 26,-26zm148 414c8,0 15,7 15,15 0,9 -7,16 -15,16 -8,0 -15,-7 -15,-16 0,-8 7,-15 15,-15zm0 -404c3,0 5,3 5,5 0,3 -2,5 -5,5 -3,0 -5,-2 -5,-5 0,-2 2,-5 5,-5zm-158 31l316 0 0 358 -316 0 0 -358z"/>
 </g>
</svg>
